# xmcd
#
# Track frame offsets: 
#        150
#        13162
#        29764
#        44964
#        60602
#        74051
#        88768
#        98807
#        111664
#        124454
#        136833
#        153240
#        166553
#
# Disc length: 2416 seconds
#
# Revision: 0
# Processed by: cddbd v1.5.2PL0 Copyright (c) Steve Scherf et al.
# Submitted via: ExactAudioCopyFreeDBPlugin 1.0
#
DISCID=c1096e0d
DTITLE=Chris Regez Band - Train of Memories
DYEAR=2011
DGENRE=Country
TTITLE0=Train of Memories
TTITLE1=Backroads
TTITLE2=Two Table Man
TTITLE3=Fishing' in the Dark
TTITLE4=Different Kind of Game
TTITLE5=Fallin' Asleep
TTITLE6=I Don't Care
TTITLE7=By the Fire
TTITLE8=More Pretty Girls
TTITLE9=Hard to Believe
TTITLE10=Rockin' Car
TTITLE11=Taste of Rock'n'roll
TTITLE12=Nothing Dries Faster than Tears 
EXTD=
EXTT0=
EXTT1=
EXTT2=
EXTT3=
EXTT4=
EXTT5=
EXTT6=
EXTT7=
EXTT8=
EXTT9=
EXTT10=
EXTT11=
EXTT12=
PLAYORDER=
